<?xml version="1.0" encoding="UTF-8" standalone="no"?>
<!-- Created with Inkscape (http://www.inkscape.org/) -->

<svg
   version="1.1"
   id="svg69"
   width="746.8147"
   height="991.71362"
   viewBox="0 0 746.81466 991.71363"
   sodipodi:docname="lionk.svg"
   inkscape:version="1.2.2 (b0a8486541, 2022-12-01)"
   xmlns:inkscape="http://www.inkscape.org/namespaces/inkscape"
   xmlns:sodipodi="http://sodipodi.sourceforge.net/DTD/sodipodi-0.dtd"
   xmlns:xlink="http://www.w3.org/1999/xlink"
   xmlns="http://www.w3.org/2000/svg"
   xmlns:svg="http://www.w3.org/2000/svg">
  <defs
     id="defs73">
    <linearGradient
       inkscape:collect="always"
       id="linearGradient97457">
      <stop
         style="stop-color:#e0bb47;stop-opacity:1;"
         offset="0"
         id="stop97453" />
      <stop
         style="stop-color:#e0bb47;stop-opacity:0;"
         offset="1"
         id="stop97455" />
    </linearGradient>
    <linearGradient
       inkscape:collect="always"
       id="linearGradient94049">
      <stop
         style="stop-color:#deb845;stop-opacity:1;"
         offset="0"
         id="stop94045" />
      <stop
         style="stop-color:#deb845;stop-opacity:0;"
         offset="1"
         id="stop94047" />
    </linearGradient>
    <linearGradient
       inkscape:collect="always"
       id="linearGradient90010">
      <stop
         style="stop-color:#deb745;stop-opacity:1;"
         offset="0"
         id="stop90006" />
      <stop
         style="stop-color:#deb745;stop-opacity:0;"
         offset="1"
         id="stop90008" />
    </linearGradient>
    <linearGradient
       inkscape:collect="always"
       id="linearGradient78425">
      <stop
         style="stop-color:#d7ad3d;stop-opacity:1;"
         offset="0"
         id="stop78421" />
      <stop
         style="stop-color:#d7ad3d;stop-opacity:0;"
         offset="1"
         id="stop78423" />
    </linearGradient>
    <linearGradient
       inkscape:collect="always"
       id="linearGradient74854">
      <stop
         style="stop-color:#d9b140;stop-opacity:1;"
         offset="0"
         id="stop74850" />
      <stop
         style="stop-color:#d9b140;stop-opacity:0;"
         offset="1"
         id="stop74852" />
    </linearGradient>
    <linearGradient
       inkscape:collect="always"
       id="linearGradient66776">
      <stop
         style="stop-color:#d4a83b;stop-opacity:1;"
         offset="0"
         id="stop66772" />
      <stop
         style="stop-color:#d4a83b;stop-opacity:0;"
         offset="1"
         id="stop66774" />
    </linearGradient>
    <linearGradient
       inkscape:collect="always"
       id="linearGradient58722">
      <stop
         style="stop-color:#c08424;stop-opacity:1;"
         offset="0"
         id="stop58718" />
      <stop
         style="stop-color:#eacd52;stop-opacity:0;"
         offset="1"
         id="stop58720" />
    </linearGradient>
    <linearGradient
       inkscape:collect="always"
       id="linearGradient56881">
      <stop
         style="stop-color:#434649;stop-opacity:1;"
         offset="0"
         id="stop56877" />
      <stop
         style="stop-color:#434649;stop-opacity:0;"
         offset="1"
         id="stop56879" />
    </linearGradient>
    <inkscape:path-effect
       effect="powerstroke"
       id="path-effect56595"
       is_visible="true"
       lpeversion="1"
       offset_points="0.21674436,7.801298"
       not_jump="true"
       sort_points="true"
       interpolator_type="CentripetalCatmullRom"
       interpolator_beta="0.75"
       start_linecap_type="round"
       linejoin_type="spiro"
       miter_limit="4"
       scale_width="1"
       end_linecap_type="round" />
    <inkscape:path-effect
       effect="simplify"
       id="path-effect56593"
       is_visible="true"
       lpeversion="1"
       steps="1"
       threshold="0.046153846"
       smooth_angles="0"
       helper_size="0"
       simplify_individual_paths="false"
       simplify_just_coalesce="false"
       step="1" />
    <linearGradient
       inkscape:collect="always"
       id="linearGradient53569">
      <stop
         style="stop-color:#cdd7dd;stop-opacity:1;"
         offset="0"
         id="stop53565" />
      <stop
         style="stop-color:#000000;stop-opacity:0"
         offset="1"
         id="stop53567" />
    </linearGradient>
    <linearGradient
       inkscape:collect="always"
       id="linearGradient51085">
      <stop
         style="stop-color:#eacd52;stop-opacity:1;"
         offset="0"
         id="stop51081" />
      <stop
         style="stop-color:#eacd52;stop-opacity:0;"
         offset="1"
         id="stop51083" />
    </linearGradient>
    <linearGradient
       inkscape:collect="always"
       id="linearGradient51077">
      <stop
         style="stop-color:#eacd52;stop-opacity:1;"
         offset="0"
         id="stop51073" />
      <stop
         style="stop-color:#eacd52;stop-opacity:0;"
         offset="1"
         id="stop51075" />
    </linearGradient>
    <linearGradient
       inkscape:collect="always"
       id="linearGradient51069">
      <stop
         style="stop-color:#eacd52;stop-opacity:1;"
         offset="0"
         id="stop51065" />
      <stop
         style="stop-color:#eacd52;stop-opacity:0;"
         offset="1"
         id="stop51067" />
    </linearGradient>
    <linearGradient
       inkscape:collect="always"
       id="linearGradient51061">
      <stop
         style="stop-color:#eacd52;stop-opacity:1;"
         offset="0"
         id="stop51057" />
      <stop
         style="stop-color:#eacd52;stop-opacity:0;"
         offset="1"
         id="stop51059" />
    </linearGradient>
    <linearGradient
       inkscape:collect="always"
       id="linearGradient51053">
      <stop
         style="stop-color:#eacd52;stop-opacity:1;"
         offset="0"
         id="stop51049" />
      <stop
         style="stop-color:#eacd52;stop-opacity:0;"
         offset="1"
         id="stop51051" />
    </linearGradient>
    <linearGradient
       inkscape:collect="always"
       id="linearGradient50217">
      <stop
         style="stop-color:#eacf52;stop-opacity:1;"
         offset="0"
         id="stop50213" />
      <stop
         style="stop-color:#eacf52;stop-opacity:0;"
         offset="1"
         id="stop50215" />
    </linearGradient>
    <linearGradient
       inkscape:collect="always"
       id="linearGradient45448">
      <stop
         style="stop-color:#eace52;stop-opacity:1;"
         offset="0"
         id="stop45444" />
      <stop
         style="stop-color:#eace52;stop-opacity:0;"
         offset="1"
         id="stop45446" />
    </linearGradient>
    <linearGradient
       inkscape:collect="always"
       id="linearGradient43803">
      <stop
         style="stop-color:#eacd52;stop-opacity:1;"
         offset="0"
         id="stop43799" />
      <stop
         style="stop-color:#eacd52;stop-opacity:0;"
         offset="1"
         id="stop43801" />
    </linearGradient>
    <linearGradient
       inkscape:collect="always"
       id="linearGradient30098">
      <stop
         style="stop-color:#eacd52;stop-opacity:1;"
         offset="0"
         id="stop30094" />
      <stop
         style="stop-color:#eacd52;stop-opacity:0;"
         offset="1"
         id="stop30096" />
    </linearGradient>
    <linearGradient
       inkscape:collect="always"
       id="linearGradient28570">
      <stop
         style="stop-color:#d7b10b;stop-opacity:1;"
         offset="0"
         id="stop28566" />
      <stop
         style="stop-color:#f8e58e;stop-opacity:0.2722801;"
         offset="1"
         id="stop28568" />
    </linearGradient>
    <linearGradient
       inkscape:collect="always"
       id="linearGradient27747">
      <stop
         style="stop-color:#000000;stop-opacity:1;"
         offset="0"
         id="stop27743" />
      <stop
         style="stop-color:#000000;stop-opacity:0;"
         offset="1"
         id="stop27745" />
    </linearGradient>
    <linearGradient
       inkscape:collect="always"
       xlink:href="#linearGradient27747"
       id="linearGradient27749"
       gradientTransform="scale(1.1408849,0.87651261)"
       x1="654.10394"
       y1="463.26538"
       x2="894.51178"
       y2="463.26538"
       gradientUnits="userSpaceOnUse" />
    <radialGradient
       inkscape:collect="always"
       xlink:href="#linearGradient28570"
       id="radialGradient28572"
       cx="849.22021"
       cy="376.9982"
       fx="849.22021"
       fy="376.9982"
       r="138.6712"
       gradientTransform="matrix(-1.2843162,-1.5070202,0.39862784,-0.33971951,1916.6765,1781.5433)"
       gradientUnits="userSpaceOnUse" />
    <radialGradient
       inkscape:collect="always"
       xlink:href="#linearGradient30098"
       id="radialGradient30100"
       cx="896.86627"
       cy="476.33463"
       fx="896.86627"
       fy="476.33463"
       r="164.87247"
       gradientTransform="matrix(0.15371451,-0.32784199,1.6799444,0.7876716,-35.233618,274.60823)"
       gradientUnits="userSpaceOnUse" />
    <radialGradient
       inkscape:collect="always"
       xlink:href="#linearGradient43803"
       id="radialGradient43805"
       cx="727.06537"
       cy="424.05505"
       fx="727.06537"
       fy="424.05505"
       r="119.49863"
       gradientTransform="matrix(-1.7374346,-0.31769375,0.20040651,-1.0960028,1895.8368,1105.3847)"
       gradientUnits="userSpaceOnUse" />
    <radialGradient
       inkscape:collect="always"
       xlink:href="#linearGradient45448"
       id="radialGradient45450"
       cx="754.617"
       cy="485.88425"
       fx="754.617"
       fy="485.88425"
       r="101.88314"
       gradientTransform="matrix(-0.67472912,-0.73806545,1.9187248,-1.7540715,290.09784,1863.3896)"
       gradientUnits="userSpaceOnUse" />
    <radialGradient
       inkscape:collect="always"
       xlink:href="#linearGradient50217"
       id="radialGradient50219"
       cx="740.43274"
       cy="532.46167"
       fx="740.43274"
       fy="532.46167"
       r="91.973656"
       gradientTransform="matrix(-0.78686233,-0.61712857,1.8868862,-2.4058515,318.35678,2249.1115)"
       gradientUnits="userSpaceOnUse" />
    <radialGradient
       inkscape:collect="always"
       xlink:href="#linearGradient51053"
       id="radialGradient51055"
       cx="710.10376"
       cy="684.34998"
       fx="710.10376"
       fy="684.34998"
       r="40.685101"
       gradientTransform="matrix(-1.2657095,-0.23738543,1.1342727,-6.0478016,781.40641,4901.9685)"
       gradientUnits="userSpaceOnUse" />
    <radialGradient
       inkscape:collect="always"
       xlink:href="#linearGradient51061"
       id="radialGradient51063"
       cx="819.62732"
       cy="664.95563"
       fx="819.62732"
       fy="664.95563"
       r="88.450371"
       gradientTransform="matrix(-2.168967,-0.92384472,1.5346336,-3.6029539,1576.9086,3748.6279)"
       gradientUnits="userSpaceOnUse" />
    <radialGradient
       inkscape:collect="always"
       xlink:href="#linearGradient51069"
       id="radialGradient51071"
       cx="911.02661"
       cy="801.17023"
       fx="911.02661"
       fy="801.17023"
       r="98.704018"
       gradientTransform="matrix(-3.8086011,-0.67957755,0.7691331,-4.3105035,3764.5569,4750.8596)"
       gradientUnits="userSpaceOnUse" />
    <radialGradient
       inkscape:collect="always"
       xlink:href="#linearGradient51077"
       id="radialGradient51079"
       cx="927.41595"
       cy="825.87372"
       fx="927.41595"
       fy="825.87372"
       r="55.113621"
       gradientTransform="matrix(-0.88482653,0.46592061,-2.5850462,-4.9092428,3882.9399,4362.6807)"
       gradientUnits="userSpaceOnUse" />
    <radialGradient
       inkscape:collect="always"
       xlink:href="#linearGradient51085"
       id="radialGradient51087"
       cx="970.76703"
       cy="774.34589"
       fx="970.76703"
       fy="774.34589"
       r="49.502026"
       gradientTransform="matrix(-0.47969343,1.3868405,-2.3503291,-0.812954,3256.4052,43.402651)"
       gradientUnits="userSpaceOnUse" />
    <radialGradient
       inkscape:collect="always"
       xlink:href="#linearGradient53569"
       id="radialGradient53571"
       cx="794.81909"
       cy="474.6203"
       fx="794.81909"
       fy="474.6203"
       r="29.860001"
       gradientTransform="matrix(0.82018869,-0.57209311,1.9004186,2.7245596,-750.92391,-349.80928)"
       gradientUnits="userSpaceOnUse" />
    <radialGradient
       inkscape:collect="always"
       xlink:href="#linearGradient56881"
       id="radialGradient56883"
       cx="888.84436"
       cy="612.68036"
       fx="888.84436"
       fy="612.68036"
       r="81.388321"
       gradientTransform="matrix(1.2823745,-0.27557778,0.54032528,2.514351,-593.38019,-672.28267)"
       gradientUnits="userSpaceOnUse" />
    <radialGradient
       inkscape:collect="always"
       xlink:href="#linearGradient58722"
       id="radialGradient51071-3"
       cx="882.91858"
       cy="756.59888"
       fx="882.91858"
       fy="756.59888"
       r="98.704018"
       gradientTransform="matrix(3.090894,-0.94285691,1.5718492,5.1528703,-3034.8237,-1933.663)"
       gradientUnits="userSpaceOnUse" />
    <radialGradient
       inkscape:collect="always"
       xlink:href="#linearGradient66776"
       id="radialGradient66778"
       cx="730.81879"
       cy="801.51862"
       fx="730.81879"
       fy="801.51862"
       r="88.450371"
       gradientTransform="matrix(1.8618547,-0.53574572,1.3894213,4.8285976,-1743.5067,-2553.7409)"
       gradientUnits="userSpaceOnUse" />
    <radialGradient
       inkscape:collect="always"
       xlink:href="#linearGradient74854"
       id="radialGradient74856"
       cx="655.20746"
       cy="690.38153"
       fx="655.20746"
       fy="690.38153"
       r="40.685101"
       gradientTransform="matrix(-0.96929015,-0.24591991,1.6603204,-6.5441315,144.03904,5293.8773)"
       gradientUnits="userSpaceOnUse" />
    <radialGradient
       inkscape:collect="always"
       xlink:href="#linearGradient78425"
       id="radialGradient78427"
       cx="454.10522"
       cy="644.50616"
       fx="454.10522"
       fy="644.50616"
       r="91.973656"
       gradientTransform="matrix(-0.33415005,-0.34946736,1.6477165,-1.5754963,-204.95836,1670.1629)"
       gradientUnits="userSpaceOnUse" />
    <linearGradient
       inkscape:collect="always"
       xlink:href="#linearGradient90010"
       id="linearGradient90012"
       x1="515.89636"
       y1="518.0705"
       x2="727.8479"
       y2="511.30124"
       gradientUnits="userSpaceOnUse" />
    <linearGradient
       inkscape:collect="always"
       xlink:href="#linearGradient94049"
       id="linearGradient94051"
       x1="494.16895"
       y1="398.84238"
       x2="779.98419"
       y2="398.84238"
       gradientUnits="userSpaceOnUse" />
    <linearGradient
       inkscape:collect="always"
       xlink:href="#linearGradient97457"
       id="linearGradient97459"
       x1="910.95282"
       y1="316.77942"
       x2="966.76477"
       y2="307.4585"
       gradientUnits="userSpaceOnUse" />
  </defs>
  <sodipodi:namedview
     id="namedview71"
     pagecolor="#ffffff"
     bordercolor="#000000"
     borderopacity="0.25"
     inkscape:showpageshadow="2"
     inkscape:pageopacity="0.0"
     inkscape:pagecheckerboard="0"
     inkscape:deskcolor="#d1d1d1"
     showgrid="false"
     inkscape:zoom="0.96137845"
     inkscape:cx="-108.69809"
     inkscape:cy="679.23303"
     inkscape:window-width="2560"
     inkscape:window-height="1371"
     inkscape:window-x="0"
     inkscape:window-y="0"
     inkscape:window-maximized="1"
     inkscape:current-layer="layer5" />
  <path
     id="path521-1"
     style="display:inline;fill:#ffffff;fill-opacity:1"
     d="m 838.11126,183.07982 c 0,0 -44.9075,9.48768 -77.8515,17.41992 -32.9452,7.93224 -75.2241,28.07728 -97.8946,40.69531 -22.6692,12.61803 -29.5903,21.58898 -33.1445,33.80274 -76.3773,41.75573 -102.7918,89.10562 -107.4746,97.8789 -4.6828,8.77328 -6.6733,22.7218 1.2793,43.53516 -31.644,30.83709 -59.2614,94.7601 -58.6875,180.19141 0,0 2.5129,-5.46661 36.2441,-53.75782 -7.2559,17.1099 -14.6018,64.16556 -13.4258,77.60743 1.1773,13.44174 8.1504,46.06765 33.3614,97.40625 -0.08,-16.07177 9.1633,-41.01586 15.4277,-49.35743 -2.0326,13.55158 1.3364,41.80338 6.1563,66.29493 4.8199,24.49142 29.2558,70.87304 29.2558,70.87304 0,0 1.5509,-18.33698 9.5449,-36.09179 -0.8533,2.73439 6.44,29.0526 9.3594,36.89453 2.9194,7.8418 15.7227,29.22613 31.1485,47.90429 15.4246,18.67816 67.4511,49.67774 67.4511,49.67774 l -1.8379,-12.06641 c 0,0 35.6897,37.15883 63.7774,51.81445 28.0878,14.65575 72.8525,23.5691 89.4472,30.40235 16.5961,6.83312 31.2383,45.64258 31.2383,82.44528 0,36.8028 -44.9472,99.1055 -44.9472,99.1055 0,0 39.9806,3.0449 57.7773,0.1894 17.7967,-2.8552 48.0581,-20.1409 57.7813,-26.7558 9.7219,-6.6147 22.3232,-36.782 32.4355,-52.6738 13.3993,-8.102 54.22944,-38.9275 71.05274,-60.9903 16.8246,-22.06277 48.8067,-111.43157 52.5723,-123.24411 3.7655,-11.81254 1.4826,-38.98531 -0.5723,-50.06445 -2.055,-11.07914 -15.5371,-31.76563 -15.5371,-31.76563 0,0 27.5395,-7.43884 47.834,-26.72851 20.2946,-19.28967 30.3541,-49.17 32.0606,-55.56836 1.7066,-6.39849 -0.2796,-25.33126 -3.6914,-32.13086 -3.413,-6.79972 -5.6399,-14.99915 -3.6583,-17.34766 1.9828,-2.34852 13.9501,-24.79892 15.295,-28.91797 1.3449,-4.11891 1.5569,-15.14254 0.2597,-29.76172 0.4886,-0.96094 4.6847,-2.52513 9.0313,-7.41211 4.3466,-4.88686 9.3616,-25.29374 9.5312,-32.17968 0.1697,-6.88607 -3.8583,-18.22189 -5.8574,-24.56641 -1.999,-6.34452 -32.1145,-29.92544 -36.7363,-33.39844 -4.6219,-3.47287 -54.6668,-43.73785 -55.834,-46.1289 -1.1671,-2.39117 -1.4671,-13.80435 -1.3594,-18.49414 0.1077,-4.68992 -1.971,-14.90798 -10.8086,-24.60743 -8.8377,-9.69946 -44.4319,-45.17181 -70.3847,-54.28515 0.2686,-2.58148 -2.4269,3.21482 3.4199,-13.7793 5.8467,-16.99413 3.5898,-46.99202 -6.3008,-82.58203 -9.89074,-35.59005 -36.45094,-52.64062 -61.20124,-67.55469 -24.7491,-14.91407 -53.0175,-31.92773 -105.5371,-31.92773 z"
     transform="translate(-450.82907,-176.36982)"
     sodipodi:nodetypes="ccccsccccccsccscccscscccccsscssccscsssccsscsccc" />
  <g
     inkscape:groupmode="layer"
     id="layer1"
     inkscape:label="Image 1"
     style="display:inline"
     transform="translate(-450.82907,-176.36982)">
    <g
       inkscape:groupmode="layer"
       id="layer8"
       inkscape:label="Background"
       style="display:none"
       transform="translate(450.82907,176.36982)" />
    <g
       inkscape:groupmode="layer"
       id="layer5"
       inkscape:label="Color"
       style="display:inline">
      <path
         style="fill:url(#radialGradient28572);fill-opacity:1;stroke-width:1.04017"
         d="m 972.76378,366.74359 c -5.45087,-5.09302 -11.01948,-14.88981 -15.25127,-26.83139 -0.95605,-2.69784 -4.04995,-8.08074 -6.87534,-11.96199 -4.97343,-6.83202 -21.40706,-24.21967 -22.89079,-24.21967 -0.40216,0 0.39087,3.5334 1.76227,7.852 4.37999,13.79268 6.91292,33.30204 4.97822,38.34379 -0.45671,1.19015 -1.68556,0.004 -4.49104,-4.33567 -9.57234,-14.80638 -43.80795,-50.41248 -56.6295,-58.89643 -13.48992,-8.92622 -58.02654,-28.92335 -79.91213,-35.8809 -21.79024,-6.92724 -51.19155,-10.18939 -75.39263,-8.36501 -7.75519,0.58462 -14.35549,0.8078 -14.66733,0.49597 -0.98446,-0.98447 14.37041,-7.51476 26.80727,-11.4009 13.66638,-4.27034 28.64575,-7.59451 38.48641,-8.54078 15.02001,-1.44432 62.85156,4.77267 81.0093,10.52933 18.90229,5.9927 43.37418,19.68264 67.4754,37.74673 4.459,3.34207 4.26635,1.76987 -0.69306,-5.65596 -10.33431,-15.47377 -24.92422,-29.76736 -45.89568,-44.96353 -6.02956,-4.36908 -12.11457,-8.78388 -13.52225,-9.81067 l -2.55943,-1.86688 4.22125,0.54706 c 10.76745,1.39543 55.95896,19.58135 66.91419,26.92753 8.76095,5.87479 22.00286,17.51746 28.80248,25.32398 24.46005,28.08216 27.1145,35.95656 26.0631,77.31623 -0.34176,13.44424 -0.99041,26.31638 -1.44145,28.60476 l -0.82006,4.16069 z"
         id="path28564" />
      <path
         style="fill:url(#linearGradient97459);fill-opacity:1;stroke-width:1.04017"
         d="m 958.83691,383.78034 c -5.4508,-5.09302 -11.0194,-14.88981 -15.2512,-26.83139 -0.9561,-2.69784 -4.05,-8.08074 -6.8754,-11.96199 -4.9734,-6.83202 -21.407,-24.21967 -22.8908,-24.21967 -0.4021,0 0.3909,3.5334 1.7623,7.852 4.38,13.79268 6.9129,33.30204 4.9782,38.34379 -0.4567,1.19015 -1.6855,0.004 -4.491,-4.33567 -9.5723,-14.80638 -43.80795,-50.41248 -56.6295,-58.89643 -13.48992,-8.92622 -58.02654,-28.92335 -79.91213,-35.8809 -21.79024,-6.92724 -51.19155,-10.18939 -75.39263,-8.36501 -7.75519,0.58462 -14.35549,0.8078 -14.66733,0.49597 -0.98446,-0.98447 14.37041,-7.51476 26.80727,-11.4009 13.66638,-4.27034 28.64575,-7.59451 38.48641,-8.54078 15.02001,-1.44432 62.85156,4.77267 81.0093,10.52933 18.90229,5.9927 43.37418,19.68264 67.47541,37.74673 4.459,3.34207 4.2663,1.76987 -0.6931,-5.65596 -10.3343,-15.47377 -24.92419,-29.76736 -45.89565,-44.96353 -6.02956,-4.36908 -12.11457,-8.78388 -13.52225,-9.81067 l -2.55943,-1.86688 4.22125,0.54706 c 10.76745,1.39543 55.95898,19.58135 66.91418,26.92753 8.761,5.87479 22.0029,17.51746 28.8025,25.32398 24.46,28.08216 27.1145,35.95656 26.0631,77.31623 -0.3418,13.44424 -0.9904,26.31638 -1.4415,28.60476 l -0.82,4.16069 z"
         id="path28564-7" />
      <path
         style="fill:url(#radialGradient30100);fill-opacity:1;stroke-width:0.735513"
         d="m 894.38435,354.25508 c -1.41586,-0.5227 -4.71635,-2.34669 -7.33442,-4.05331 -19.26685,-12.5593 -61.18408,-29.14006 -86.13093,-34.06991 -7.55887,-1.49374 -7.9389,-1.50126 -13.48764,-0.26678 -3.19567,0.71097 -6.32376,1.88441 -7.10444,2.66509 -1.31466,1.31466 -1.84986,1.34296 -9.31327,0.49247 -11.1866,-1.27477 -80.93492,-1.24912 -91.39922,0.0336 -31.37036,3.84544 -62.30281,12.62815 -97.47868,27.67729 -5.20881,2.22846 -9.61571,3.90662 -9.79309,3.72923 -1.16226,-1.16226 17.47316,-20.06743 28.57877,-28.99244 28.42828,-22.84637 67.75931,-40.51028 100.7584,-45.25149 46.81208,-6.72582 101.23553,-0.23895 134.92858,16.08249 14.30058,6.92742 34.53366,23.2262 50.65273,40.80335 7.02176,7.65694 15.65632,19.81852 14.70186,20.70726 -1.21839,1.13451 -5.09236,1.36102 -7.57865,0.44314 z"
         id="path28574" />
      <path
         style="fill:#e0bb47;fill-opacity:0.803922;stroke-width:0.735513"
         d="m 896.23566,337.95715 c -1.41586,-0.52269 -4.71636,-2.34669 -7.33443,-4.05331 -19.26684,-12.5593 -61.18408,-29.14006 -86.13093,-34.06991 -7.55887,-1.49374 -7.9389,-1.50126 -13.48764,-0.26677 -3.19567,0.71096 -6.32376,1.88441 -7.10444,2.66509 -1.31466,1.31466 -1.84986,1.34296 -9.31327,0.49247 -11.1866,-1.27477 -80.93492,-1.24912 -91.39922,0.0336 -31.37036,3.84544 -62.30281,12.62815 -97.47868,27.67729 -5.20881,2.22846 -9.61571,3.90662 -9.79309,3.72923 -1.16226,-1.16226 17.47316,-20.06743 28.57877,-28.99244 28.42828,-22.84637 67.75931,-40.51028 100.7584,-45.25149 46.81208,-6.72582 101.23553,-0.23895 134.92858,16.08249 14.30058,6.92742 34.53366,23.2262 50.65273,40.80335 7.02176,7.65694 15.65632,19.81852 14.70186,20.70726 -1.21839,1.13451 -5.09236,1.36102 -7.57865,0.44314 z"
         id="path28574-2" />
      <path
         style="fill:url(#radialGradient43805);fill-opacity:1;stroke-width:0.736;stroke-dasharray:none"
         d="m 506.76877,496.13552 c 0,-1.54334 3.28753,-13.007 5.9277,-20.66992 3.69141,-10.71409 9.33096,-22.70638 14.90459,-31.69402 11.96313,-19.29087 38.70494,-47.62908 56.94984,-60.34954 23.84038,-16.62166 63.79708,-35.32322 81.332,-38.06709 15.82751,-2.47669 55.57537,-4.1379 71.99866,-3.00908 l 7.88447,0.54191 -4.79257,4.09125 c -17.34547,14.80719 -28.9478,36.62014 -30.26118,56.8925 l -0.41187,6.3573 -11.48155,0.51222 c -43.32975,1.93306 -75.93308,8.61107 -101.58194,20.80664 -29.86364,14.19961 -58.01668,33.6032 -80.67782,55.60464 -5.38468,5.22792 -9.79033,9.27037 -9.79033,8.98319 z"
         id="path43797" />
      <path
         style="fill:url(#linearGradient94051);fill-opacity:1;stroke-width:0.772188;stroke-dasharray:none"
         d="m 494.16896,469.77928 c 0,-1.42056 3.93153,-11.97222 7.0889,-19.02552 4.41453,-9.86172 11.15883,-20.89995 17.82429,-29.17258 14.30663,-17.75617 46.28698,-43.83991 68.10593,-55.54839 28.51055,-15.29931 76.2945,-32.51306 97.26439,-35.03864 18.92801,-2.27965 66.46221,-3.8087 86.10271,-2.76969 l 9.42899,0.4988 -5.7314,3.76577 c -20.74334,13.62919 -34.61848,33.7068 -36.18915,52.36638 l -0.49255,5.85154 -13.73071,0.47147 c -51.81775,1.77927 -90.80785,7.92601 -121.48115,19.15135 -35.71373,13.06995 -69.38176,30.92988 -96.48206,51.18098 -6.4395,4.81201 -11.70819,8.53286 -11.70819,8.26853 z"
         id="path43797-3" />
      <path
         style="fill:url(#radialGradient45450);fill-opacity:1;stroke-width:0.541338;stroke-dasharray:none"
         d="m 518.84485,611.94719 c 0.19835,-12.62087 0.7938,-25.23606 1.42338,-30.15605 4.16404,-32.54064 11.53142,-54.35926 24.58658,-72.81358 5.57739,-7.88399 26.99302,-29.62827 36.56857,-37.12975 16.41155,-12.8568 39.18644,-24.69448 57.9162,-30.10304 8.14024,-2.35065 38.02786,-6.83424 61.60474,-9.24164 4.24759,-0.43372 10.19263,-1.42841 13.2112,-2.21043 3.01858,-0.78202 5.66643,-1.23612 5.88411,-1.00911 0.7548,0.78712 -8.47265,8.52231 -16.88877,14.15752 -4.65213,3.11493 -13.09214,8.26548 -18.7556,11.44565 -5.66345,3.18017 -11.29013,6.41609 -12.50373,7.19092 l -2.20654,1.40879 3.67757,-0.42158 c 26.46623,-3.03395 40.95584,-1.91022 46.47001,3.60395 2.15832,2.15832 2.44116,2.89824 2.43753,6.37663 -0.002,2.16425 -0.34864,5.17563 -0.76975,6.69196 -1.49464,5.38192 -2.63128,5.99532 -19.45276,10.49778 -45.80197,12.2594 -73.58612,21.48055 -90.83591,30.14709 -11.11464,5.58415 -26.71824,17.61562 -41.42001,31.9377 -22.92624,22.33414 -37.81581,45.11614 -48.82489,74.70521 l -2.46293,6.61963 z"
         id="path44533" />
      <path
         style="fill:url(#linearGradient90012);fill-opacity:1;stroke-width:0.541338;stroke-dasharray:none"
         d="m 516.08704,578.9075 c 0.19835,-12.62087 0.7938,-25.23606 1.42338,-30.15605 4.16404,-32.54064 11.53142,-54.35926 24.58658,-72.81358 l 95.29278,-43.52158 c 0,0 90.46175,-13.31789 90.45812,-9.8395 -0.002,2.16425 -8.68425,22.60462 -9.10536,24.12095 -1.49464,5.38192 -2.63128,5.99532 -19.45276,10.49778 -45.80197,12.2594 -73.58612,21.48055 -90.83591,30.14709 -11.11464,5.58415 -26.71824,17.61562 -41.42001,31.9377 -22.92624,22.33414 -37.81581,45.11614 -48.82489,74.70521 l -2.46293,6.61963 z"
         id="path44533-9"
         sodipodi:nodetypes="sscccssssscs" />
      <path
         style="fill:url(#radialGradient50219);fill-opacity:1;stroke-width:0.541338;stroke-dasharray:none"
         d="m 567.66979,732.92924 c -0.67743,-1.0961 -3.99413,-17.95495 -5.49665,-27.9396 -1.91845,-12.74856 -1.91764,-47.30186 10e-4,-58.84108 4.45759,-26.80394 13.09108,-49.53019 25.53447,-67.21523 15.65099,-22.2438 56.98942,-49.6834 91.90546,-61.00495 13.31476,-4.31732 51.98076,-15.05128 52.94503,-14.69792 0.34294,0.12567 -5.22349,4.59767 -12.36987,9.93776 -21.77331,16.27001 -36.73635,29.31161 -35.28981,30.75815 0.18804,0.18804 3.13028,-0.78006 6.53831,-2.15133 15.58858,-6.27231 50.3628,-18.08896 53.23366,-18.08937 0.38493,-5e-5 -9.70999,6.48461 -22.43317,14.41036 -41.18123,25.65336 -67.35481,43.77662 -81.46176,56.40624 -7.53421,6.74519 -19.57439,19.69501 -27.84497,29.94865 -23.27499,28.85571 -37.805,62.44769 -43.52897,100.63478 -0.70647,4.71317 -1.48636,8.24277 -1.73309,7.84354 z"
         id="path44535" />
      <path
         style="fill:url(#radialGradient78427);fill-opacity:1;stroke-width:0.541338;stroke-dasharray:none"
         d="m 568.93773,718.81923 c -0.67743,-1.0961 -3.99413,-17.95495 -5.49665,-27.9396 -1.91845,-12.74856 -1.91764,-47.30186 10e-4,-58.84108 4.45759,-26.80394 13.09108,-49.53019 25.53447,-67.21523 15.65099,-22.2438 56.98942,-49.6834 91.90546,-61.00495 13.31476,-4.31732 51.98076,-15.05128 52.94503,-14.69792 0.34294,0.12567 -5.22349,4.59767 -12.36987,9.93776 -21.77331,16.27001 -36.73635,29.31161 -35.28981,30.75815 0.18804,0.18804 3.13028,-0.78006 6.53831,-2.15133 15.58858,-6.27231 50.3628,-18.08896 53.23366,-18.08937 0.38493,-5e-5 -9.70999,6.48461 -22.43317,14.41036 -41.18123,25.65336 -67.35481,43.77662 -81.46176,56.40624 -7.53421,6.74519 -19.57439,19.69501 -27.84497,29.94865 -23.27499,28.85571 -37.805,62.44769 -43.52897,100.63478 -0.70647,4.71317 -1.48636,8.24277 -1.73309,7.84354 z"
         id="path44535-6" />
      <path
         style="fill:url(#radialGradient51055);fill-opacity:1;stroke-width:0.541338;stroke-dasharray:none"
         d="m 651.66491,850.48016 c -19.81366,-16.08961 -32.04215,-30.41456 -37.97796,-44.48891 -6.17456,-14.64044 -10.55747,-41.36737 -10.56341,-64.41552 -0.004,-14.33979 3.38006,-36.85178 7.76558,-51.66412 8.30175,-28.03962 22.48371,-50.95856 45.29502,-73.19962 8.68289,-8.46583 27.50951,-23.73166 28.29653,-22.94464 0.1612,0.16119 -1.18831,2.54853 -2.99889,5.30519 -12.25742,18.66227 -29.24087,65.17164 -41.21862,112.87768 -5.27236,20.99922 -5.6471,23.51304 -6.05818,40.63933 -0.82145,34.22274 4.71113,62.52152 18.07901,92.47301 2.06591,4.6288 3.68197,8.48049 3.59123,8.5593 -0.0907,0.0788 -1.98538,-1.33496 -4.21031,-3.1417 z"
         id="path44537" />
      <path
         style="fill:url(#radialGradient74856);fill-opacity:1;stroke-width:0.541338;stroke-dasharray:none"
         d="m 639.50748,851.63065 c -19.81366,-16.08961 -32.04215,-30.41456 -37.97796,-44.48891 -6.17456,-14.64044 -10.55747,-41.36737 -10.56341,-64.41552 -0.004,-14.33979 3.38006,-36.85178 7.76558,-51.66412 8.30175,-28.03962 22.48371,-50.95856 45.29502,-73.19962 8.68289,-8.46583 27.50951,-23.73166 28.29653,-22.94464 0.1612,0.16119 -1.18831,2.54853 -2.99889,5.30519 -12.25742,18.66227 -29.24087,65.17164 -41.21862,112.87768 -5.27236,20.99922 -5.6471,23.51304 -6.05818,40.63933 -0.82145,34.22274 4.71113,62.52152 18.07901,92.47301 2.06591,4.6288 3.68197,8.48049 3.59123,8.5593 -0.0907,0.0788 -1.98538,-1.33496 -4.21031,-3.1417 z"
         id="path44537-6" />
      <path
         style="fill:url(#radialGradient51063);fill-opacity:1;stroke-width:0.541338;stroke-dasharray:none"
         d="m 783.32182,926.08116 c -30.37977,-13.76178 -48.28744,-25.39785 -65.10174,-42.30188 -11.27642,-11.3366 -17.57395,-19.94388 -24.52914,-33.52573 -8.4486,-16.49811 -13.90509,-32.53696 -21.01894,-61.78313 -4.34583,-17.86642 -5.1193,-24.95774 -4.60829,-42.24983 0.73382,-24.83214 5.7198,-48.59673 16.41628,-78.24469 10.37085,-28.74537 30.2601,-68.10639 45.03607,-89.12682 21.41247,-30.46159 48.638,-53.07358 85.06508,-70.65024 9.87757,-4.76609 28.54117,-12.46278 30.22085,-12.46278 0.26463,0 -1.65216,2.26142 -4.25952,5.02537 -21.30952,22.5892 -45.59545,71.35367 -73.09151,146.76271 -2.1934,6.01549 -3.988,11.09108 -3.988,11.27909 0,0.18801 1.57216,-1.04626 3.49369,-2.74283 4.66219,-4.11636 17.56082,-12.62648 28.8689,-19.04682 11.61283,-6.59335 45.13108,-23.60306 46.44976,-23.57212 0.54498,0.0128 -0.002,0.87798 -1.21568,1.92266 -36.29928,31.24693 -61.10912,64.57279 -78.54642,105.50761 -11.75182,27.58789 -18.41842,57.9988 -19.4199,88.58729 -1.41785,43.30619 11.97398,78.93416 42.35827,112.69097 3.7322,4.14645 6.51746,7.51438 6.18947,7.48429 -0.32798,-0.0301 -4.07164,-1.629 -8.31923,-3.55312 z"
         id="path44539" />
      <path
         style="fill:url(#radialGradient66778);fill-opacity:1;stroke-width:0.541338;stroke-dasharray:none"
         d="M 765.39554,929.96125 C 735.01577,916.19947 717.1081,904.5634 700.2938,887.65937 c -11.27642,-11.3366 -17.57395,-19.94388 -24.52914,-33.52573 -8.4486,-16.49811 -13.90509,-32.53696 -21.01894,-61.78313 -4.34583,-17.86642 -5.1193,-24.95774 -4.60829,-42.24983 0.73382,-24.83214 5.7198,-48.59673 16.41628,-78.24469 10.37085,-28.74537 30.2601,-68.10639 45.03607,-89.12682 21.41247,-30.46159 48.638,-53.07358 85.06508,-70.65024 9.87757,-4.76609 28.54117,-12.46278 30.22085,-12.46278 0.26463,0 -1.65216,2.26142 -4.25952,5.02537 -21.30952,22.5892 -45.59545,71.35367 -73.09151,146.76271 -2.1934,6.01549 -3.988,11.09108 -3.988,11.27909 0,0.18801 1.57216,-1.04626 3.49369,-2.74283 4.66219,-4.11636 17.56082,-12.62648 28.8689,-19.04682 11.61283,-6.59335 45.13108,-23.60306 46.44976,-23.57212 0.54498,0.0128 -0.002,0.87798 -1.21568,1.92266 -36.29928,31.24693 -61.10912,64.57279 -78.54642,105.50761 -11.75182,27.58789 -18.41842,57.9988 -19.4199,88.58729 -1.41785,43.30619 11.97398,78.93416 42.35827,112.69097 3.7322,4.14645 6.51746,7.51438 6.18947,7.48429 -0.32798,-0.0301 -4.07164,-1.629 -8.31923,-3.55312 z"
         id="path44539-2" />
      <path
         style="fill:url(#radialGradient51071);fill-opacity:1;stroke-width:0.541338;stroke-dasharray:none"
         d="m 881.88062,1130.8646 c 0,-0.2295 1.19905,-2.7981 2.66455,-5.7082 15.46167,-30.7028 21.46709,-72.2476 14.95979,-103.4901 -1.80104,-8.647 -4.23133,-13.8444 -14.33279,-30.65154 -18.81765,-31.30955 -41.21997,-62.44019 -61.8627,-85.96546 -11.36736,-12.95471 -18.32817,-22.48528 -24.76844,-33.91237 -16.0052,-28.39835 -24.24843,-65.18362 -20.02777,-89.37367 4.64234,-26.60686 23.68977,-76.93099 36.62081,-96.75377 6.17342,-9.46361 17.36669,-20.16893 33.78511,-32.31233 11.20891,-8.29034 31.74002,-20.88668 32.61599,-20.01071 0.17543,0.17543 -2.04145,2.94519 -4.9264,6.15503 -18.75444,20.86643 -32.17764,41.87817 -38.02939,59.52854 -3.36447,10.14808 -4.35429,16.07612 -6.07912,36.40791 -1.42489,16.79633 -1.50593,20.21544 -0.77576,32.73035 1.36868,23.45887 5.05913,42.28939 10.96164,55.93181 2.92894,6.76965 8.09208,15.50124 8.76704,14.82629 0.20879,-0.20879 0.0363,-4.79593 -0.38332,-10.19364 -3.67519,-47.27593 1.25913,-89.2471 13.37556,-113.77207 4.42333,-8.9533 24.29276,-38.51688 23.06517,-34.31849 -5.50503,18.82729 -6.54642,26.02475 -6.54481,45.23408 10e-4,16.94922 1.24065,29.38038 4.68737,47.02069 3.09373,15.8337 8.93779,34.6213 10.7693,34.6213 0.34063,0 0.18692,-2.89608 -0.34158,-6.43574 -1.46843,-9.8347 -2.04917,-33.83446 -1.02783,-42.4759 1.00848,-8.53274 4.26803,-25.14421 4.4019,-22.43316 0.0499,1.01133 1.06401,6.63801 2.25351,12.50373 4.90365,24.18121 14.85758,48.88215 33.49268,83.11302 19.95562,36.65654 30.06716,64.56496 35.97547,99.29431 3.03629,17.84748 3.70732,25.97208 3.6449,44.13081 -0.0828,24.07604 -2.29908,35.98808 -10.20811,54.86578 -15.35514,36.6503 -45.76964,77.2865 -70.59679,94.3228 -6.0083,4.1229 -12.13598,7.7182 -12.13598,7.1207 z"
         id="path44541" />
      <path
         style="fill:url(#radialGradient51071-3);fill-opacity:1;stroke-width:0.541338;stroke-dasharray:none"
         d="m 870.11111,1150.9699 c 0,-0.2295 1.19905,-2.7981 2.66455,-5.7082 15.46167,-30.7028 21.46709,-72.2476 14.95979,-103.4901 -1.80104,-8.647 -4.23133,-13.8444 -14.33279,-30.6516 -18.81765,-31.30951 -41.21997,-62.44015 -61.8627,-85.96542 -11.36736,-12.95471 -18.32817,-22.48528 -24.76844,-33.91237 -16.0052,-28.39835 -24.24843,-65.18362 -20.02777,-89.37367 4.64234,-26.60686 23.68977,-76.93099 36.62081,-96.75377 6.17342,-9.46361 13.64315,-33.85925 30.06157,-46.00265 11.20891,-8.29034 47.49897,-27.1644 48.37494,-26.28843 0.17543,0.17543 -14.07686,22.91323 -16.96181,26.12307 -18.75444,20.86643 -29.43958,40.48184 -35.29133,58.13221 -3.36447,10.14808 -7.09235,17.47245 -8.81718,37.80424 -1.42489,16.79633 -1.50593,20.21544 -0.77576,32.73035 1.36868,23.45887 5.05913,42.28939 10.96164,55.93181 29.87008,57.37855 147.24961,128.9437 121.92725,205.98103 -15.35514,36.6503 -45.76964,77.2865 -70.59679,94.3228 -6.0083,4.1229 -12.13598,7.7182 -12.13598,7.1207 z"
         id="path44541-5"
         sodipodi:nodetypes="ssssssssssssssccss" />
      <path
         style="fill:url(#radialGradient51079);fill-opacity:1;stroke-width:0.541338;stroke-dasharray:none"
         d="m 1000.2993,1020.4003 c 5e-4,-0.336 0.4799,-3.3323 1.0653,-6.6584 4.7265,-26.85714 1.9219,-85.15615 -5.18022,-107.67806 -5.35256,-16.97383 -28.49554,-64.55234 -47.78882,-98.24666 -7.78554,-13.59689 -10.64055,-25.89399 -11.06613,-47.66403 l -0.27319,-13.97476 1.83712,5.1486 c 4.33394,12.14598 17.53165,33.81402 25.86953,42.47265 4.6266,4.80458 17.99486,16.15377 35.53541,30.16833 16.9837,13.56968 20.4286,16.94186 26.4536,25.8953 10.6442,15.81767 15.9531,30.39972 19.5499,53.69777 1.6632,10.77361 1.1507,30.00333 -1.066,39.99189 -4.5848,20.65958 -15.7995,42.65155 -31.7835,62.32767 -6.5693,8.0866 -13.1544,15.356 -13.153,14.5197 z"
         id="path44543" />
      <path
         style="fill:url(#radialGradient51087);fill-opacity:1;stroke-width:0.541338;stroke-dasharray:none"
         d="m 1067.3039,886.40691 c -0.1315,-3.07093 -2.3869,-9.89826 -5.3026,-16.05153 -8.8323,-18.63928 -28.0722,-40.09572 -54.2941,-60.54888 -11.61137,-9.05696 -21.50988,-20.51651 -30.18305,-34.94308 -4.12786,-6.86612 -8.33806,-15.10256 -7.92902,-15.5116 0.15659,-0.1566 3.07435,1.45976 6.4839,3.5919 9.78246,6.1174 20.47986,12.22777 36.31817,20.74496 16.1446,8.68196 18.9326,10.32412 24.2005,14.25471 7.6916,5.739 22.4221,25.72254 26.9133,36.51084 1.2159,2.92076 2.7468,8.41518 3.402,12.2098 1.4252,8.25434 2.2259,34.27804 1.1853,38.5264 -0.4743,1.93681 -0.7458,2.35246 -0.7944,1.21648 z"
         id="path44545" />
      <path
         style="display:inline;fill:url(#radialGradient53571);fill-opacity:1;stroke-width:0.382784;stroke-dasharray:none"
         d="m 803.79376,484.87188 c -3.6738,-0.50156 -13.76746,-2.95584 -17.14215,-4.16811 -9.91833,-3.56292 -17.04938,-7.51397 -25.76074,-15.11651 -22.0079,-19.20664 -12.11803,-55.61189 -14.00328,-59.52932 0,0 11.53255,31.38683 19.71226,44.82145 9.6612,10.78654 13.43017,15.62982 19.1042,21.25212 2.73274,2.70782 19.7529,12.10157 20.03839,12.45913 0.28549,0.35756 0.31489,0.61504 0.0653,0.57218 -0.24956,-0.0428 -1.15586,-0.17378 -2.014,-0.29094 z"
         id="path51278"
         sodipodi:nodetypes="sssccsssss" />
      <path
         style="display:inline;fill:url(#radialGradient56883);fill-opacity:1;stroke:none;stroke-width:0.736;stroke-dasharray:none"
         d="m 894.02091,453.48282 c -14.32255,39.63124 -18.94189,58.63174 -5.99616,97.37079 20.22841,60.53192 83.84375,45.92361 132.51025,45.92361 -37.04895,25.72436 -86.94338,21.19158 -112.87117,15.91554 C 828.5804,596.87608 858.76942,476.30098 894.02091,453.48282 Z"
         id="path56599"
         sodipodi:nodetypes="csccc" />
      <path
         style="fill:#0995c8;fill-opacity:0.849357;stroke-width:1.00848;stroke-dasharray:none"
         d="m 535.37133,327.34392 c -1.51764,-0.63697 -5.70837,-4.26935 -9.31275,-8.07197 -10.57393,-11.15544 -9.1116,-13.09151 10.91209,-14.44713 13.582,-0.91952 14.04581,-0.8573 14.96763,2.00746 1.35507,4.21119 -0.38619,13.71978 -3.16618,17.28974 -2.647,3.39915 -9.21571,4.97844 -13.40079,3.2219 z"
         id="path123344"
         transform="translate(450.82907,176.36982)" />
    </g>
    <path
       id="path521"
       style="display:inline;fill:#1d222c;fill-opacity:1"
       d="m 1937.0082,-19.642752 c 0,0 -44.9075,9.487686 -77.8515,17.419922 -32.9452,7.9322373 -75.2241,28.077279 -97.8946,40.695313 -22.6692,12.618031 -29.5903,21.58898 -33.1445,33.802734 -76.3773,41.755733 -102.7918,89.105623 -107.4746,97.878903 -4.6828,8.77328 -6.6733,22.7218 1.2793,43.53516 -31.644,30.83709 -59.2614,94.7601 -58.6875,180.19141 0,0 2.5129,-5.46661 36.2441,-53.75782 -7.2559,17.1099 -14.6018,64.16556 -13.4258,77.60743 1.1773,13.44174 8.1504,46.06765 33.3614,97.40625 -0.08,-16.07177 9.1633,-41.01586 15.4277,-49.35743 -2.0326,13.55158 1.3364,41.80338 6.1563,66.29493 4.8199,24.49142 29.2558,70.87304 29.2558,70.87304 0,0 1.5509,-18.33698 9.5449,-36.09179 -0.8533,2.73439 6.44,29.0526 9.3594,36.89453 2.9194,7.8418 15.7227,29.22613 31.1485,47.90429 15.4246,18.67816 67.4511,49.67774 67.4511,49.67774 l -1.8379,-12.06641 c 0,0 35.6897,37.15883 63.7774,51.81445 28.0878,14.65575 72.8525,23.5691 89.4472,30.40235 16.5961,6.83312 31.2383,45.64263 31.2383,82.44531 0,36.80278 -44.9472,99.10547 -44.9472,99.10547 0,0 39.9806,3.04485 57.7773,0.18945 17.7967,-2.85527 48.0581,-20.14096 57.7813,-26.75586 9.7219,-6.61467 22.3232,-36.78198 32.4355,-52.67382 13.3993,-8.102 54.2294,-38.9275 71.0527,-60.99024 16.8246,-22.0628 48.8067,-111.4316 52.5723,-123.24414 3.7655,-11.81254 1.4826,-38.98531 -0.5723,-50.06445 -2.055,-11.07914 -15.5371,-31.76563 -15.5371,-31.76563 0,0 27.5395,-7.43884 47.834,-26.72851 20.2946,-19.28967 30.3541,-49.17 32.0606,-55.56836 1.7066,-6.39849 -0.2796,-25.33126 -3.6914,-32.13086 -3.413,-6.79972 -5.6399,-14.99915 -3.6583,-17.34766 1.9828,-2.34852 13.9501,-24.79892 15.295,-28.91797 1.3449,-4.11891 1.5569,-15.14254 0.2597,-29.76172 0.4886,-0.96094 4.6847,-2.52513 9.0313,-7.41211 4.3466,-4.88686 9.3616,-25.29374 9.5312,-32.17968 0.1697,-6.88607 -3.8583,-18.22189 -5.8574,-24.56641 -1.999,-6.34452 -32.1145,-29.92544 -36.7363,-33.39844 -4.6219,-3.47287 -54.6668,-43.73785 -55.834,-46.1289 -1.1671,-2.39117 -1.4671,-13.80435 -1.3594,-18.49414 0.1077,-4.68992 -1.971,-14.90798 -10.8086,-24.60743 -8.8377,-9.69946 -44.4319,-45.17181 -70.3847,-54.28515 0.2686,-2.58148 -2.4269,3.21482 3.4199,-13.7793 5.8467,-16.99413 3.5898,-46.99202 -6.3008,-82.58203 -9.8907,-35.590052 -36.4509,-52.640622 -61.2012,-67.554687 -24.7491,-14.9140728 -53.0175,-31.927735 -105.5371,-31.927735 z m 12.2149,24.0527345 c 25.068,3.8886893 39.8417,13.0477475 61.1933,20.8710935 21.3529,7.823346 50.5941,37.820766 63.3164,59.81836 12.7235,21.997624 4.2657,84.382814 4.2657,84.382814 0,0 -13.6786,-3.69885 -22.7871,-34.55274 -10.7885,-18.97441 -28.7383,-33.70507 -28.7383,-33.70507 0,0 11.4317,26.50176 6.7988,51.12109 -6.203,-17.99827 -48.6697,-59.354853 -60.7813,-67.548829 -12.1103,-8.193976 -67.4884,-34.695651 -93.7128,-39.964843 -26.2257,-5.269195 -50.4418,-7.701514 -81.5977,-2.292969 11.6145,-9.86178 42.9596,-18.668199 64.1602,-22.123047 21.1993,-3.454871 65.675,4.506509 74.7871,6.447266 9.112,1.940754 32.6125,5.563225 82.8359,43.083984 -2.9306,-6.356652 -13.1562,-19.707805 -21.6367,-27.994141 -7.5906,-7.416766 -17.4612,-16.843111 -48.1035,-37.5429685 z M 1838.643,70.575998 c 2.3419,-0.0027 4.7292,0.01961 7.1543,0.07031 32.3343,0.676056 71.4285,6.366834 100.3926,24.160156 37.442,26.666266 53.9217,50.779026 55.5937,56.376956 -5.8723,3.50956 -11.5083,-0.13175 -13.873,-2.05859 -29.2985,-18.84173 -81.3441,-36.36919 -96.7871,-36.57032 -15.9317,2.54762 -12.1621,5.11133 -12.1621,5.11133 -27.526,-3.34388 -73.2841,-3.3625 -97.1329,-1.23047 -23.8476,2.13216 -58.2472,8.76856 -113.3418,33.45313 39.0441,-51.181215 101.0284,-72.108842 130.0567,-76.574224 9.5249,-1.465195 23.7062,-2.719343 40.0996,-2.738281 z m -15.959,68.267582 c 8.5332,0.0477 16.5454,0.38191 23.0449,1.11328 -40.3679,31.5457 -35.7929,68.10937 -35.7929,68.10937 -57.9145,0.707 -93.3813,11.4717 -109.377,19.13282 -15.9957,7.66101 -56.5138,26.34001 -96.0586,68.80078 12.412,-55.32975 37.1762,-77.37751 62.5781,-102.60352 25.403,-25.2259 80.4949,-47.39071 91.4766,-50.16992 8.2363,-2.08441 38.5293,-4.52594 64.1289,-4.38281 z m 76.1953,2.89648 c 1.0369,0.009 2.0661,0.0489 3.084,0.11719 16.2861,1.09322 38.0512,20.78485 46.6231,27.66015 8.5716,6.87532 5.7591,20.31018 1.2656,26.68555 -4.4935,6.37538 -7.151,2.20679 -10.7754,-0.13476 -3.6244,-2.34157 -9.9719,-11.90147 -15.0156,-15.5 -5.0438,-3.59855 -19.4386,-11.75833 -33.4493,-13.91602 -1.698,4.83111 -5.3509,11.98046 -8.7656,19.58984 -3.4147,7.6094 -4.7545,29.93004 -5.0332,40.23438 -0.2787,10.30434 1.7828,24.24697 29.1289,56.31641 -25.131,-2.93918 -38.8339,-12.09634 -50.707,-25.51368 -11.8731,-13.41731 -14.2381,-51.80435 -0.5449,-83.09375 10.4479,-23.87387 26.3371,-31.55776 41.0566,-32.37304 1.0514,-0.0582 2.0959,-0.081 3.1328,-0.0723 z m 105.4238,35.79492 c 2.1198,-0.0418 4.3059,-0.0336 6.5372,0.0176 26.7754,0.61443 60.1823,7.49771 66.498,10.49024 8.4209,3.99002 76.4582,49.38601 79.4141,60.27734 2.956,10.89132 3.1781,30.0489 6.1504,36.72266 2.9722,6.67375 52.791,46.48801 64.9277,55.29492 12.1367,8.80692 32.4904,17.40869 32.2324,37.2207 0,0 -44.8318,2.07795 -74.5215,-14.4043 6.7835,14.42222 19.9936,25.52168 31.9434,31.53516 11.9498,6.01348 25.8696,14.89729 24.75,36.11719 -0.6025,11.41974 -22.0021,27.77043 -32.418,34.06836 -10.416,6.2979 -40.5792,19.75528 -50.4687,22.6289 -7.0512,2.04891 -36.2468,6.57665 -67.7637,2.9668 20.3798,-9.2898 57.9114,-28.40921 90.1797,-49.2168 -12.3723,-0.90203 -81.7805,27.40898 -129.9961,37.52539 15.626,-16.66424 78.9519,-49.20547 115.8516,-62.54687 -18.8836,0.0853 -65.15,22.61221 -115.5528,26.85547 6.5681,-7.2223 33.6013,-16.08781 40.7891,-18.11328 7.1877,-2.0255 15.8319,1.24178 25.4941,-32.48047 0,0 -8.1385,6.86383 -24.4258,12.46289 -16.2871,5.59903 -57.3573,9.04343 -81.3339,6.30078 -23.9768,-2.74264 -50.6087,-38.99901 -53.6622,-49.79688 -3.0533,-10.79787 -1.4745,-82.93949 36.0489,-111.71484 -20.7903,5.38166 -39.7764,10.30739 -61.8789,25.73828 0,0 3.4766,-28.61903 45.5,-49.71094 -6.8383,-0.17675 -27.1377,4.8103 -59.1035,13.43946 9.9221,-6.28167 24.6585,-16.86404 30.6679,-22.30664 6.0094,-5.44262 31.4394,-28.88181 55.4629,-24.05274 -4.0835,-6.12116 -6.3814,-9.46528 -18.1015,-13.44922 4.6517,-1.17324 10.4201,-1.74383 16.7792,-1.86914 z m -183.8164,47.67188 c -5.4976,11.69342 -51.0722,35.20312 -51.0722,35.20312 53.1198,-7.02032 51.6126,5.28683 52.1269,8.14844 0.5143,2.86161 -0.1855,13.2338 -5.1172,15.13867 -4.9316,1.90486 -90.8513,22.00568 -115.9277,39.93946 -25.0764,17.93369 -65.7498,51.18688 -83.4668,110.72265 -3.689,-113.75773 32.2416,-135.53333 50.6035,-154.66797 18.362,-19.13464 55.44,-39.67293 81.4492,-43.61914 26.0102,-3.9461 48.4117,-6.62366 53.2715,-6.85351 4.8599,-0.22984 18.1328,-4.01172 18.1328,-4.01172 z m 126.5293,66.18359 c -19.239,15.70168 -45.4447,55.69217 -84.2129,164.39258 5.6844,-6.57397 24.6651,-20.54439 85.627,-49.24219 -82.5147,63.14169 -100.9853,149.75523 -102.6172,166.57422 -1.6319,16.81898 -21.4495,89.37891 48.3438,155.74414 -95.7664,-38.41705 -109.2651,-83.12601 -126.2871,-156.89648 -11.639,-74.29062 39.4086,-162.58515 50.5136,-180.97461 11.1051,-18.38947 42.2739,-71.23463 128.6328,-99.59766 z m -110.8359,7.04102 c 0,0 -47.0418,33.37985 -52.3613,42.66992 27.0494,-10.83436 56.7094,-20.57815 63.1523,-21.27344 -22.0639,14.06373 -88.5489,53.13863 -112.3281,77.19922 -28.4977,28.83484 -60.2176,66.87941 -67.5684,137.25391 -21.0762,-80.8167 2.1908,-133.15739 18.2715,-157.19922 16.0807,-24.04191 62.1699,-53.66251 96.9473,-63.57031 19.0026,-5.762 53.8867,-15.08008 53.8867,-15.08008 z m -47.584,88.27929 c -25.8133,24.23263 -53.1371,135.13208 -54.289,146.17774 -1.152,11.04567 -7.3723,62.98639 22.5957,120.44531 -22.3962,-17.42883 -29.4737,-24.55976 -40.8262,-41.98047 -11.9575,-18.3491 -16.7816,-67.66928 -13.6367,-88.47461 3.1449,-20.80534 7.1038,-85.2202 86.1562,-136.16797 z m 196.0293,40.3086 c -56.6807,58.49922 -50.7327,89.3379 -53.1015,107.84961 -2.3689,18.51171 -1.6895,74.247 18.791,100.37304 -9.3982,-97.44655 16.9433,-131.65039 16.9433,-131.65039 0,0 13.5568,-22.245 21.7969,-31.02343 -20.3402,42.89465 -1.4293,119.7198 6.5,131.57812 -6.8891,-43.43917 0.7476,-62.86338 2.6816,-76.16406 5.5706,52.97336 33.804,93.02914 48.2227,123.12109 26.4533,55.20811 34.0631,121.10967 23.3145,159.49219 -10.7492,38.38256 -52.031,101.68095 -90.334,118.89453 31.2615,-58.16204 20.1042,-110.56262 15.8379,-120.32226 -4.2664,-9.7598 -37.6742,-66.90212 -74.5821,-107.7754 -36.9073,-40.87322 -44.8471,-84.44967 -44.9629,-110.43554 -0.1158,-25.98592 27.1932,-97.15565 42.0157,-114.77149 14.8219,-17.61578 45.0069,-38.99188 66.8769,-49.16601 z m 232.0508,53.23242 c 1.6171,-1.07776 5.9801,2.45801 8.1367,7.84375 2.1565,5.38573 12.929,25.63559 -1.5176,50.84961 -14.9219,20.20412 -32.761,35.52447 -41.8554,39.16406 14.9078,-20.33618 9.9314,-34.72065 5.9668,-43.54687 -5.6661,14.8387 -9.4381,13.80278 -14.125,16.83593 -6.2766,-12.68013 -8.9264,-11.29204 -12.8575,-12.63086 7.3869,11.16662 -1.0041,25.86347 -5.0449,30.94141 2.6675,-27.07494 -20.3589,-33.26608 -26.8457,-35.70703 -6.4869,-2.44096 -22.6346,-7.64609 -38.8222,-21.36133 30.1111,7.49655 60.4473,-2.41471 67.121,-5.60937 6.6737,-3.19467 47.4653,-20.84403 59.8438,-26.7793 z m -180.7344,60.94141 c 7.0305,24.96134 19.3665,37.37673 24.4102,45.41992 5.0437,8.04319 46.9044,40.58864 53.3301,45.5332 6.4252,4.9446 23.0767,26.29699 28.4609,50.7168 5.3842,24.41975 17.9839,73.0579 -44.4668,137.71094 7.9872,-24.92259 4.4917,-84.72918 -1.1094,-110.73633 -5.6011,-26.0072 -50.3197,-106.48103 -52.8437,-110.0293 -2.524,-3.54828 -10.7262,-28.85869 -7.7813,-58.61523 z m 30.9219,13.36914 c 36.2901,23.68715 58.157,31.45917 69.0977,40.36718 10.9404,8.908 26.7596,31.2216 29.3339,43.90625 2.5742,12.68469 4.7214,36.7674 1.084,48.08594 -3.643,-36.90193 -57.2837,-78.01458 -63.3359,-81.85156 -6.0522,-3.83703 -26.3307,-26.33654 -36.1797,-50.50781 z"
       transform="translate(-1098.8969,202.72283)" />
    <path
       id="path682"
       style="display:inline;fill:#1b212b;fill-opacity:1"
       d="m 974.11914,444.38477 c 0.95383,2.94478 -0.66479,5.14906 12.70508,12.71875 -4.2257,-0.0366 -24.80853,5.48269 -28.50195,9.01562 -3.69342,3.53293 -22.21777,12.31961 -39.46289,17.49609 -10e-6,0 30.3879,3.31564 38.80273,6.52149 8.41482,3.20584 14.494,15.4391 25.69922,18.55859 11.20521,3.11951 19.34957,1.65095 27.49217,2.54688 8.1426,0.89593 24.2047,8.62179 36.2031,24.73633 -0.6145,-8.19745 -17.4172,-34.97461 -21.8847,-41.11914 -4.4674,-6.14454 -7.7226,-21.39845 -5.3731,-31.31055 -7.3076,1.0615 -39.31065,-11.52022 -45.67966,-19.16406 z m 22.82227,38.09961 c 0.86939,-0.0488 1.42205,0.0775 2.22656,0.55078 2.14543,1.26212 2.72673,15.30173 -4.83985,18.77929 -9.94512,1.87871 -12.97942,-4.65073 -14.33398,-6.0957 -1.35456,-1.44496 -6.32653,-5.23061 -5.1543,-9.36133 1.17223,-4.13072 12.45313,-2.9668 12.45313,-2.9668 5.8662,-0.25807 8.19944,-0.82484 9.64844,-0.90624 z" />
    <g
       inkscape:groupmode="layer"
       inkscape:label="Image"
       id="g75"
       style="display:inline"
       transform="translate(-1098.8969,202.72283)" />
  </g>
  <g
     inkscape:groupmode="layer"
     id="layer3"
     inkscape:label="Image base"
     style="display:inline;fill:url(#linearGradient27749);fill-opacity:1"
     transform="translate(-450.82907,-176.36982)" />
</svg>
