<?xml version="1.0" encoding="UTF-8" standalone="no"?>
<!-- Created with Inkscape (http://www.inkscape.org/) -->

<svg
   width="150mm"
   height="150mm"
   viewBox="0 0 150 150"
   version="1.1"
   id="svg100302"
   xml:space="preserve"
   inkscape:version="1.2.2 (b0a8486541, 2022-12-01)"
   sodipodi:docname="logo.svg"
   inkscape:export-filename="../logo.png"
   inkscape:export-xdpi="96"
   inkscape:export-ydpi="96"
   xmlns:inkscape="http://www.inkscape.org/namespaces/inkscape"
   xmlns:sodipodi="http://sodipodi.sourceforge.net/DTD/sodipodi-0.dtd"
   xmlns:xlink="http://www.w3.org/1999/xlink"
   xmlns="http://www.w3.org/2000/svg"
   xmlns:svg="http://www.w3.org/2000/svg"><sodipodi:namedview
     id="namedview100304"
     pagecolor="#ffffff"
     bordercolor="#000000"
     borderopacity="0.25"
     inkscape:showpageshadow="2"
     inkscape:pageopacity="0.0"
     inkscape:pagecheckerboard="0"
     inkscape:deskcolor="#d1d1d1"
     inkscape:document-units="mm"
     showgrid="false"
     inkscape:zoom="0.91490602"
     inkscape:cx="30.057732"
     inkscape:cy="369.43685"
     inkscape:window-width="2560"
     inkscape:window-height="1371"
     inkscape:window-x="0"
     inkscape:window-y="0"
     inkscape:window-maximized="1"
     inkscape:current-layer="layer6" /><defs
     id="defs100299"><rect
       x="102.51143"
       y="766.45221"
       width="540.39868"
       height="171.32133"
       id="rect463" /><rect
       x="107.49888"
       y="737.15845"
       width="422.25168"
       height="163.66808"
       id="rect136409" /><linearGradient
       inkscape:collect="always"
       id="linearGradient117413"><stop
         style="stop-color:#0770b5;stop-opacity:1;"
         offset="0"
         id="stop117409" /><stop
         style="stop-color:#0abecb;stop-opacity:0.4609375;"
         offset="1"
         id="stop117411" /></linearGradient><linearGradient
       inkscape:collect="always"
       id="linearGradient108077"><stop
         style="stop-color:#debd31;stop-opacity:1;"
         offset="0"
         id="stop108073" /><stop
         style="stop-color:#debd31;stop-opacity:0;"
         offset="1"
         id="stop108075" /></linearGradient><linearGradient
       inkscape:collect="always"
       xlink:href="#linearGradient108077"
       id="linearGradient108079"
       x1="509.33273"
       y1="390.96906"
       x2="601.07037"
       y2="336.57053"
       gradientUnits="userSpaceOnUse"
       gradientTransform="matrix(0.26458333,0,0,0.26458333,-1.4052196,-0.91231879)" /><linearGradient
       inkscape:collect="always"
       xlink:href="#linearGradient117413"
       id="linearGradient117415"
       x1="59.775307"
       y1="158.1799"
       x2="159.06645"
       y2="86.487961"
       gradientUnits="userSpaceOnUse"
       gradientTransform="translate(-1.4052196,-0.91231879)" /></defs><g
     inkscape:label="Calque 1"
     inkscape:groupmode="layer"
     id="layer1"
     transform="translate(-31.521908,-47.329178)"><ellipse
       style="fill:#ffffff;fill-opacity:1;stroke:#1c212b;stroke-width:3;stroke-dasharray:none;stroke-opacity:1"
       id="path101070"
       cx="106.62457"
       cy="122.56828"
       rx="63.457809"
       ry="61.737854"
       inkscape:export-filename="./logo.png"
       inkscape:export-xdpi="96"
       inkscape:export-ydpi="96" /><ellipse
       style="fill:url(#linearGradient117415);fill-opacity:1;stroke:#1c212b;stroke-width:3;stroke-dasharray:none;stroke-opacity:1"
       id="path101070-3"
       cx="106.62457"
       cy="122.56828"
       rx="56.938221"
       ry="55.394974" /><path
       style="fill:url(#linearGradient108079);fill-opacity:1;stroke:none;stroke-width:3.27903;stroke-dasharray:none;stroke-opacity:1"
       d="M 102.27004,182.5252 C 82.525632,181.03474 65.037015,170.78142 54.270339,154.38368 52.146375,151.14887 49.46895,145.73534 48.21201,142.13425 44.273346,130.85012 43.806378,118.68096 46.876304,107.32571 52.107137,87.977557 67.149395,72.263231 86.65369,65.771126 c 13.10508,-4.362093 26.79966,-4.362252 39.90847,-5.3e-4 15.84981,5.273829 28.6883,16.445489 35.8648,31.208443 5.45925,11.230351 7.20838,23.177001 5.15957,35.240051 -3.28368,19.33371 -16.01129,35.86593 -34.22689,44.45819 -9.40643,4.437 -20.96878,6.61184 -31.0896,5.84785 z m 10.8447,-3.27741 c 18.53546,-2.07118 34.90461,-12.49809 44.27708,-28.20387 5.72377,-9.59153 8.42842,-21.09851 7.61952,-32.41735 -0.75593,-10.57769 -4.09231,-19.810876 -10.41031,-28.809799 -2.10821,-3.00278 -7.18968,-8.401841 -10.31485,-10.959536 -17.79161,-14.560934 -43.35299,-17.417201 -64.139308,-7.16702 -6.125562,3.020647 -11.182091,6.719768 -16.079618,11.763102 -8.50941,8.762746 -13.686401,19.257353 -15.45948,31.338903 -0.728506,4.96395 -0.455671,14.16351 0.561951,18.94798 2.284082,10.73891 7.158591,19.92078 14.772518,27.82627 9.390552,9.75015 21.421106,15.75783 35.146694,17.55116 3.430303,0.44819 10.585473,0.51459 14.025803,0.13016 z"
       id="path102252" /></g><g
     inkscape:groupmode="layer"
     id="layer6"
     inkscape:label="Lion"
     style="display:inline"
     transform="translate(-31.521908,-47.329178)"><image
       preserveAspectRatio="none"
       inkscape:svg-dpi="96"
       width="110"
       height="146.07169"
       xlink:href="lionk.svg"
       id="image100568"
       x="48.156471"
       y="49.745266"
       style="display:inline" /></g></svg>
